<svg width="272" height="68" viewBox="0 0 272 68" fill="none" xmlns="http://www.w3.org/2000/svg">
<path d="M50 58L50 41.502M50 58L50 42L50 41.502M50 58L66 66L66 49.1287L66 32.2574L66 2L34 17.1287L2 2L2 66L18 58L17.7412 42.1294M17.7391 42L17.4783 26L34.1276 33.9362L50 26L50 41.502M17.7391 42L17.8706 42.0647L17.7412 42.1294M17.7391 42L17.7412 42.1294" stroke="black" stroke-width="2.5" stroke-linejoin="round"/>
<path d="M18.1304 42.1069L18.0021 42.1715L18.0021 58L34.1294 50.0212L18.1304 42.1069Z" fill="#FFA500"/>
<path d="M34.1294 50.0212L50 42.0424L50 41.5458L34.256 34L18.1304 42.1069L34.1294 50.0212Z" fill="#FFA500"/>
<path d="M34.1294 50.0212L50 58L50 42.0424L34.1294 50.0212Z" fill="#FFA500"/>
<path d="M34.1294 50.0212L50 42.0424M34.1294 50.0212L18.0021 58L18.0021 42.1715M34.1294 50.0212L18.1304 42.1069M34.1294 50.0212L50 58M50 42.0424L50 41.5458M50 42.0424L50 58M50 58L50 41.5458M18.1304 42.1069L18.0021 42.1715M18.1304 42.1069L18 42.0424L18.0021 42.1715M18.1304 42.1069L34.256 34L50 41.5458" stroke="black" stroke-width="2.5" stroke-linejoin="round"/>
<path d="M87.088 52V23.392H77.68V18.4H101.968V23.392H92.272V52H87.088ZM111.163 52.48C109.371 52.48 107.803 52.064 106.459 51.232C105.147 50.4 104.123 49.232 103.387 47.728C102.683 46.224 102.331 44.432 102.331 42.352V26.8H107.275V41.008C107.275 42.48 107.499 43.76 107.947 44.848C108.427 45.904 109.099 46.72 109.963 47.296C110.859 47.872 111.931 48.16 113.179 48.16C114.107 48.16 114.955 48.016 115.723 47.728C116.491 47.408 117.147 46.976 117.691 46.432C118.267 45.888 118.715 45.232 119.035 44.464C119.355 43.696 119.515 42.864 119.515 41.968V26.8H124.459V52H119.515V46.72L120.379 46.144C119.995 47.328 119.339 48.4 118.411 49.36C117.515 50.32 116.443 51.088 115.195 51.664C113.947 52.208 112.603 52.48 111.163 52.48ZM132.642 52V18.4H137.73L149.97 38.32L147.522 38.272L159.906 18.4H164.706V52H159.522V38.224C159.522 35.344 159.586 32.752 159.714 30.448C159.874 28.144 160.13 25.856 160.482 23.584L161.154 25.36L150.162 42.352H146.994L136.338 25.552L136.866 23.584C137.218 25.728 137.458 27.936 137.586 30.208C137.746 32.448 137.826 35.12 137.826 38.224V52H132.642ZM184.638 52.48C182.046 52.48 179.742 51.936 177.726 50.848C175.742 49.728 174.174 48.208 173.022 46.288C171.902 44.368 171.342 42.16 171.342 39.664C171.342 37.68 171.662 35.872 172.302 34.24C172.942 32.608 173.822 31.2 174.942 30.016C176.094 28.8 177.454 27.872 179.022 27.232C180.622 26.56 182.35 26.224 184.206 26.224C185.838 26.224 187.358 26.544 188.766 27.184C190.174 27.792 191.39 28.64 192.414 29.728C193.47 30.816 194.27 32.112 194.814 33.616C195.39 35.088 195.662 36.704 195.63 38.464L195.582 40.576H174.99L173.886 36.64H191.31L190.59 37.456V36.304C190.494 35.248 190.142 34.304 189.534 33.472C188.926 32.64 188.158 31.984 187.23 31.504C186.302 31.024 185.294 30.784 184.206 30.784C182.478 30.784 181.022 31.12 179.838 31.792C178.654 32.432 177.758 33.392 177.15 34.672C176.542 35.92 176.238 37.472 176.238 39.328C176.238 41.088 176.606 42.624 177.342 43.936C178.078 45.216 179.118 46.208 180.462 46.912C181.806 47.616 183.358 47.968 185.118 47.968C186.366 47.968 187.518 47.76 188.574 47.344C189.662 46.928 190.83 46.176 192.078 45.088L194.574 48.592C193.806 49.36 192.862 50.032 191.742 50.608C190.654 51.184 189.486 51.648 188.238 52C187.022 52.32 185.822 52.48 184.638 52.48ZM201.003 52V26.8H205.995V34.72L205.515 32.8C205.867 31.584 206.459 30.48 207.291 29.488C208.155 28.496 209.131 27.712 210.219 27.136C211.339 26.56 212.491 26.272 213.675 26.272C214.219 26.272 214.731 26.32 215.211 26.416C215.723 26.512 216.123 26.624 216.411 26.752L215.115 32.128C214.731 31.968 214.299 31.84 213.819 31.744C213.371 31.616 212.923 31.552 212.475 31.552C211.611 31.552 210.779 31.728 209.979 32.08C209.211 32.4 208.523 32.864 207.915 33.472C207.339 34.048 206.875 34.736 206.523 35.536C206.171 36.304 205.995 37.152 205.995 38.08V52H201.003ZM229.988 52.48C227.652 52.48 225.556 51.904 223.7 50.752C221.876 49.6 220.42 48.032 219.332 46.048C218.276 44.064 217.748 41.84 217.748 39.376C217.748 36.912 218.276 34.688 219.332 32.704C220.42 30.72 221.876 29.152 223.7 28C225.556 26.848 227.652 26.272 229.988 26.272C232.228 26.272 234.26 26.736 236.084 27.664C237.94 28.56 239.348 29.792 240.308 31.36L237.572 34.72C237.06 33.984 236.404 33.312 235.604 32.704C234.804 32.096 233.956 31.616 233.06 31.264C232.164 30.912 231.3 30.736 230.468 30.736C228.932 30.736 227.556 31.12 226.34 31.888C225.156 32.624 224.212 33.648 223.508 34.96C222.804 36.272 222.452 37.744 222.452 39.376C222.452 41.008 222.82 42.48 223.556 43.792C224.292 45.072 225.268 46.096 226.484 46.864C227.7 47.632 229.044 48.016 230.516 48.016C231.38 48.016 232.212 47.872 233.012 47.584C233.844 47.296 234.644 46.864 235.412 46.288C236.18 45.712 236.9 45.008 237.572 44.176L240.308 47.536C239.284 48.976 237.812 50.16 235.892 51.088C234.004 52.016 232.036 52.48 229.988 52.48ZM254.668 52.48C252.588 52.48 250.684 51.904 248.956 50.752C247.26 49.6 245.9 48.032 244.876 46.048C243.852 44.064 243.34 41.824 243.34 39.328C243.34 36.8 243.852 34.56 244.876 32.608C245.932 30.624 247.34 29.072 249.1 27.952C250.892 26.832 252.892 26.272 255.1 26.272C256.412 26.272 257.612 26.464 258.7 26.848C259.788 27.232 260.732 27.776 261.532 28.48C262.364 29.152 263.036 29.936 263.548 30.832C264.092 31.728 264.428 32.688 264.556 33.712L263.452 33.328V26.8H268.444V52H263.452V46L264.604 45.664C264.412 46.528 264.012 47.376 263.404 48.208C262.828 49.008 262.076 49.728 261.148 50.368C260.252 51.008 259.244 51.52 258.124 51.904C257.036 52.288 255.884 52.48 254.668 52.48ZM255.964 47.92C257.468 47.92 258.796 47.552 259.948 46.816C261.1 46.08 261.996 45.072 262.636 43.792C263.308 42.48 263.644 40.992 263.644 39.328C263.644 37.696 263.308 36.24 262.636 34.96C261.996 33.68 261.1 32.672 259.948 31.936C258.796 31.2 257.468 30.832 255.964 30.832C254.492 30.832 253.18 31.2 252.028 31.936C250.908 32.672 250.012 33.68 249.34 34.96C248.7 36.24 248.38 37.696 248.38 39.328C248.38 40.992 248.7 42.48 249.34 43.792C250.012 45.072 250.908 46.08 252.028 46.816C253.18 47.552 254.492 47.92 255.964 47.92Z" fill="black"/>
</svg>
